<svg xmlns="http://www.w3.org/2000/svg" width="142" height="142" viewBox="0 0 142 142"><defs><style>.a{fill:#e6e6e6;}</style></defs><title>Asset 3</title><path class="a" d="M71,0a71,71,0,1,0,71,71A71,71,0,0,0,71,0ZM28.64,79.11,23.37,75.5,18.1,79.11l1.69-6.43-4.95-3.59h6.51l2-6.2,2,6.2H31.9l-5,3.83Zm71.71,12.24c0,8.93-4.32,13.25-13.25,13.25H40.45V92.12h8.25V49.88H40.45V37.4H87.1c8.93,0,13.25,4.22,13.25,13.25ZM118.62,75.5l-5.27,3.61L115,72.68l-4.95-3.59h6.51l2-6.2,2,6.2h6.51l-5,3.83,1.69,6.2Z"/><path class="a" d="M82.59,51.23h-18V90.77h18c1.34,0,1.82-.48,1.82-1.82V53C84.42,51.61,83.93,51.23,82.59,51.23Z"/></svg>