<?xml version="1.0" encoding="utf-8"?>
<!-- Generator: Adobe Illustrator 21.0.0, SVG Export Plug-In . SVG Version: 6.00 Build 0)  -->
<svg version="1.1" id="Layer_1" xmlns="http://www.w3.org/2000/svg" xmlns:xlink="http://www.w3.org/1999/xlink" x="0px" y="0px"
	 viewBox="0 0 254.2 176" style="enable-background:new 0 0 254.2 176;" xml:space="preserve">
<style type="text/css">
	.st0{fill:#DD3B2F;}
	.st1{fill:#21385F;}
	.st2{fill:#FFFFFF;}
</style>
<title>Asset 2</title>
<g>
	<path class="st0" d="M9.6,76.7v-44H1v-13h48.6c9.3,0,13.8,4.4,13.8,13.8v42.4c0,9.3-4.5,13.8-13.8,13.8H1v-13L9.6,76.7z M44.9,75.3
		c1.4,0,1.9-0.5,1.9-1.9V36.1c0-1.5-0.5-1.9-1.9-1.9H26.2v41.2H44.9z"/>
	<path class="st0" d="M86.2,89.7c-9.3,0-13.8-4.5-13.8-13.8V33.6c0-9.4,4.6-13.8,13.9-13.8h26c9.4,0,13.7,4.4,13.7,13.8v12.2h-16.6
		v-9.7c0-1.5-0.4-1.9-1.9-1.9H90.9c-1.4,0-1.9,0.4-1.9,1.9v37.4c0,1.4,0.5,1.9,1.9,1.9h16.6c1.5,0,1.9-0.5,1.9-1.9v-9.8H126v12.3
		c0,9.3-4.4,13.8-13.8,13.8H86.2z"/>
	<path class="st1" d="M1,126.6h6.6c5.3,0,9,3.7,9,8.4l0,0c0,4.8-3.7,8.5-9,8.5H1V126.6z M7.6,140.2c2.7,0.2,4.9-1.9,5.1-4.5
		c0-0.2,0-0.3,0-0.5l0,0c0.2-2.7-1.9-5-4.6-5.2c-0.2,0-0.4,0-0.5,0H4.7v10.2H7.6z"/>
	<path class="st1" d="M19.7,135.2L19.7,135.2c0-4.8,3.9-8.8,8.8-8.8c0.1,0,0.2,0,0.2,0c4.8-0.2,8.8,3.6,9,8.4c0,0.1,0,0.2,0,0.3l0,0
		c0,4.8-3.9,8.8-8.8,8.8c-0.1,0-0.2,0-0.2,0c-4.8,0.2-8.8-3.6-9-8.4C19.7,135.4,19.7,135.3,19.7,135.2z M33.8,135.2L33.8,135.2
		c0.1-2.8-2.1-5.2-5-5.3c-0.1,0-0.1,0-0.2,0c-2.8,0-5.1,2.2-5.1,5c0,0.1,0,0.2,0,0.2l0,0c-0.1,2.8,2.1,5.2,5,5.3c0.1,0,0.1,0,0.2,0
		c2.8,0,5.1-2.2,5.1-5C33.8,135.3,33.8,135.2,33.8,135.2L33.8,135.2z"/>
	<path class="st1" d="M41.4,136.3v-9.7h3.7v9.6c0,2.8,1.4,4.2,3.7,4.2s3.7-1.4,3.7-4.1v-9.7h3.7v9.6c0,5.1-2.9,7.7-7.4,7.7
		S41.4,141.3,41.4,136.3z"/>
	<path class="st1" d="M60,135.2L60,135.2c0-4.8,3.8-8.7,8.6-8.8c0.1,0,0.2,0,0.3,0c2.4-0.1,4.8,0.7,6.7,2.3l-2.3,2.8
		c-1.2-1.1-2.8-1.8-4.4-1.7c-2.8,0.1-5,2.5-4.9,5.3l0,0c-0.2,2.8,2,5.2,4.8,5.4c0.1,0,0.2,0,0.3,0c1.2,0,2.5-0.3,3.5-1V137h-3.8
		v-3.2h7.4v7.4c-2,1.7-4.6,2.7-7.2,2.7C63.6,143.9,60,140.2,60,135.2z"/>
	<path class="st1" d="M81,126.6h3.7v13.6h8.5v3.4H81V126.6z"/>
	<path class="st1" d="M103.7,126.5h3.4l7.3,17.1h-3.9l-1.6-3.8h-7.2l-1.6,3.8h-3.8L103.7,126.5z M107.6,136.5l-2.2-5.5l-2.2,5.5
		H107.6z"/>
	<path class="st1" d="M116.6,141.1l2.2-2.6c1.4,1.3,3.2,2,5.1,2.1c1.5,0,2.4-0.6,2.4-1.6l0,0c0-0.9-0.6-1.4-3.4-2.2
		c-3.4-0.9-5.6-1.8-5.6-5.2l0,0c0-3.1,2.5-5.1,5.9-5.1c2.3,0,4.5,0.7,6.3,2.2l-1.9,2.8c-1.3-1-2.8-1.6-4.4-1.7
		c-1.4,0-2.2,0.6-2.2,1.5l0,0c0,1.1,0.7,1.5,3.7,2.2c3.4,0.9,5.4,2.1,5.4,5.1l0,0c0,3.4-2.6,5.3-6.2,5.3
		C121.2,143.8,118.6,142.9,116.6,141.1z"/>
	<path class="st1" d="M141.9,135.2L141.9,135.2c-0.1-4.8,3.7-8.7,8.5-8.8c0.1,0,0.2,0,0.4,0c2.5-0.1,4.9,0.8,6.7,2.6l-2.4,2.7
		c-1.1-1.2-2.7-1.9-4.3-1.9c-2.8,0-5,2.3-4.9,5.1c0,0.1,0,0.1,0,0.2l0,0c-0.2,2.8,1.9,5.1,4.7,5.3c0.1,0,0.2,0,0.3,0
		c1.7,0,3.3-0.7,4.5-2l2.4,2.4c-1.7,2-4.3,3.1-7,3c-4.7,0-8.6-3.8-8.6-8.5C141.9,135.2,141.9,135.2,141.9,135.2z"/>
	<path class="st1" d="M160.1,135.2L160.1,135.2c0-5,4-9,9-9s9,4,9,9l0,0c0,5-4,9-9,9S160.1,140.1,160.1,135.2z M174.2,135.2
		L174.2,135.2c0.1-2.8-2.1-5.2-5-5.3c-0.1,0-0.1,0-0.2,0c-2.8,0-5.1,2.2-5.1,5c0,0.1,0,0.2,0,0.2l0,0c-0.1,2.8,2.1,5.2,5,5.3
		c0.1,0,0.1,0,0.2,0c2.8,0,5.1-2.2,5.1-5C174.2,135.3,174.2,135.2,174.2,135.2z"/>
	<path class="st1" d="M181.8,136.3v-9.7h3.7v9.6c0,2.8,1.4,4.2,3.7,4.2s3.7-1.4,3.7-4.1v-9.7h3.7v9.6c0,5.1-2.9,7.7-7.4,7.7
		S181.8,141.3,181.8,136.3z"/>
	<path class="st1" d="M201.1,126.6h3.4l7.9,10.4v-10.4h3.7v17H213l-8.2-10.8v10.8h-3.7L201.1,126.6z"/>
	<path class="st1" d="M224.8,130.1h-5.2v-3.4h14.1v3.4h-5.2v13.5h-3.7V130.1z"/>
	<path class="st1" d="M242.8,136.9l-6.5-10.3h4.4l4,6.8l4.1-6.8h4.3l-6.5,10.2v6.8h-3.7V136.9z"/>
	<path class="st1" d="M1,156.9h6.6c5.3,0,9,3.7,9,8.4l0,0c0,4.8-3.7,8.5-9,8.5H1V156.9z M7.6,170.5c2.7,0.2,4.9-1.9,5.1-4.5
		c0-0.2,0-0.3,0-0.5l0,0c0.1-2.7-1.9-5-4.6-5.1c-0.2,0-0.3,0-0.5,0H4.7v10.2H7.6z"/>
	<path class="st1" d="M20.6,156.9h12.8v3.3h-9.1v3.4h8v3.3h-8v3.6h9.2v3.3H20.6V156.9z"/>
	<path class="st1" d="M38.6,156.9h4l4.5,7.2l4.5-7.2h4v17h-3.7v-11.1L47,170h-0.1l-4.7-7.2v11h-3.6V156.9z"/>
	<path class="st1" d="M59.2,165.4L59.2,165.4c0-5,4-9,9-9s9,4,9,9l0,0c0,5-4,9-9,9S59.2,170.4,59.2,165.4z M73.3,165.4L73.3,165.4
		c0.1-2.8-2.1-5.2-5-5.3c-0.1,0-0.1,0-0.2,0c-2.8,0-5.1,2.2-5.1,5c0,0.1,0,0.2,0,0.2l0,0c-0.1,2.8,2.1,5.2,5,5.3c0.1,0,0.1,0,0.2,0
		c2.8,0,5.1-2.2,5.1-5C73.3,165.6,73.3,165.5,73.3,165.4L73.3,165.4z"/>
	<path class="st1" d="M80.3,165.4L80.3,165.4c-0.1-4.8,3.7-8.7,8.5-8.8c0.1,0,0.2,0,0.4,0c2.5-0.1,4.9,0.8,6.7,2.6l-2.4,2.7
		c-1.1-1.2-2.7-1.9-4.3-1.9c-2.8,0-5,2.3-4.9,5.1c0,0.1,0,0.1,0,0.2l0,0c-0.2,2.8,1.9,5.1,4.7,5.3c0.1,0,0.2,0,0.3,0
		c1.7,0,3.3-0.7,4.5-2l2.4,2.4c-1.7,2-4.3,3.1-7,3c-4.7,0.1-8.6-3.7-8.7-8.5C80.3,165.6,80.3,165.5,80.3,165.4z"/>
	<path class="st1" d="M100.2,156.9h7.8c1.8-0.1,3.6,0.5,4.9,1.7c1,1,1.5,2.4,1.4,3.9l0,0c0.1,2.4-1.4,4.5-3.6,5.3l4.1,6.1h-4.4
		l-3.6-5.4H104v5.4h-3.8V156.9z M107.7,165.2c1.8,0,2.9-1,2.9-2.4l0,0c0-1.6-1.1-2.4-2.9-2.4H104v4.9L107.7,165.2z"/>
	<path class="st1" d="M124.8,156.8h3.4l7.3,17.1h-3.9l-1.6-3.8h-7.2l-1.6,3.8h-3.8L124.8,156.8z M128.7,166.8l-2.2-5.5l-2.2,5.5
		H128.7z"/>
	<path class="st1" d="M140.5,160.4h-5.2v-3.4h14.1v3.4h-5.2v13.5h-3.7V160.4z"/>
	<path class="st1" d="M151.9,171.4l2.2-2.6c1.4,1.3,3.2,2,5.1,2.1c1.5,0,2.4-0.6,2.4-1.6l0,0c0-0.9-0.6-1.4-3.4-2.2
		c-3.4-0.9-5.6-1.8-5.6-5.2l0,0c0-3.1,2.5-5.1,5.9-5.1c2.3,0,4.5,0.7,6.3,2.2l-1.9,2.8c-1.3-1-2.8-1.6-4.4-1.7
		c-1.4,0-2.2,0.6-2.2,1.5l0,0c0,1.1,0.7,1.5,3.7,2.2c3.4,0.9,5.4,2.1,5.4,5.1l0,0c0,3.4-2.6,5.3-6.2,5.3
		C156.4,174.1,153.9,173.2,151.9,171.4z"/>
	<circle class="st1" cx="188.7" cy="54.8" r="53.8"/>
	<path class="st2" d="M171.9,70.7v-32h-6.2v-9.4h35.3c6.8,0,10,3.2,10,10v30.8c0,6.8-3.3,10-10,10h-35.3v-9.4H171.9z M197.5,69.7
		c1,0,1.4-0.4,1.4-1.4V41.2c0-1.1-0.4-1.4-1.4-1.4h-13.6v29.9L197.5,69.7z"/>
	<polygon class="st2" points="152.7,48.6 154.2,53.3 159.1,53.3 155.4,56.2 156.7,60.9 152.7,58.2 148.7,60.9 150,56 146.2,53.3 
		151.2,53.3 	"/>
	<polygon class="st2" points="224.8,48.6 226.3,53.3 231.2,53.3 227.5,56.2 228.8,60.9 224.8,58.2 220.8,60.9 222.1,56 218.3,53.3 
		223.3,53.3 	"/>
</g>
</svg>
