<svg xmlns="http://www.w3.org/2000/svg" width="1000" height="671.17" viewBox="0 0 1000 671.17"><defs><style>.a{fill:#1c355e;}.b{fill:#dc3a2e;}</style></defs><title>Asset 6</title><path class="a" d="M52.56,667.28H0V451.19H52.56c31.15,0,49.32,19.47,49.32,51.59V617C101.88,649.43,83.71,667.28,52.56,667.28ZM67.49,502.45c0-13.63-5.19-20.44-17.2-20.44H34.39V636.78h15.9c12,0,17.2-7.14,17.2-20.44Z"/><path class="a" d="M113.88,667.28V451.19h86.31v30.5H148.27v59.7h36v28.55h-36v65.87h51.91v31.47Z"/><path class="a" d="M320,667.28V506.67l-6.81,45.43L293,667.28h-26L247.93,552.09l-6.49-45.43V667.28h-30.5V451.19h46.4l18.82,109.35L282,602.39l6.16-41.85,18.49-109.35H352.4V667.28Z"/><path class="a" d="M416,671.17c-31.15,0-51.59-21.09-51.59-51.27V498.56c0-29.85,20.44-51.27,51.59-51.27s51.59,21.41,51.59,51.27V619.91C467.58,650.09,447.14,671.17,416,671.17ZM432.86,496c0-10.38-6.16-17.52-16.87-17.52s-16.87,7.14-16.87,17.52V622.51c0,10.38,6.16,17.52,16.87,17.52s16.87-7.14,16.87-17.52Z"/><path class="a" d="M531.82,671.17c-31.47,0-52.24-22.06-52.24-51.59V498.88c0-29.52,20.77-51.59,52.24-51.59,31.8,0,49,20.77,49,49.64v31.15h-30.5v-31.8c0-10.38-5.84-17.84-17.85-17.84S514.62,485.9,514.62,496V622.51c0,10.06,5.84,17.52,17.85,17.52s17.85-7.46,17.85-17.85V590.06h30.5v31.47C580.81,650.41,563.61,671.17,531.82,671.17Z"/><path class="a" d="M636.94,578.38H627.2v88.9H592.81V451.19h55.81c24.33,0,42.18,13.63,42.18,43.48v42.18c0,17.52-6.81,30.5-21.41,36.34l25,94.09H659Zm7.46-26.93c8.44,0,13-4.87,13-15.25V495c0-9.09-3.57-14-11.68-14H627.2v70.41Z"/><path class="a" d="M774.88,667.28l-5.52-42.18H737.88l-6.49,42.18H699.92l36-216.09h38l36,216.09ZM754.76,508,742.1,596.22h23.36Z"/><path class="a" d="M861,482.66V667.28h-34.4V482.66H793.19V451.19H893.77v31.47Z"/><path class="a" d="M949.38,671.17c-31.15,0-50.62-19.14-50.62-49.64V602.39h31.47v18.49c0,13.63,6.17,21.42,18.17,21.42,12.33,0,18.17-7.46,18.17-19.47,0-18.82-9.41-32.77-27.58-51.91-17.85-17.85-38.61-43.16-38.61-70.74,0-29.2,16.87-52.89,50.29-52.89,28.88,0,47.7,20.12,47.7,49.64v19.47H967.23V496.94c0-12-5.52-20.12-16.55-20.12-10.06,0-16.87,6.49-16.87,17.52,0,21.09,9.41,31.47,29.53,52.89C984.43,569,1000,590.71,1000,618,1000,652.36,977.61,671.17,949.38,671.17Z"/><rect class="b" x="290.25" y="270.83" width="18.72" height="153.46"/><polygon class="b" points="345.25 0 335.89 0 335.89 62.94 326.53 62.94 326.53 424.28 345.25 424.28 345.25 0"/><rect class="b" x="253.97" y="198.12" width="18.72" height="226.16"/><rect class="b" x="471.66" y="309.51" width="18.72" height="114.78"/><polygon class="b" points="399.1 63.74 399.1 424.28 417.81 424.28 417.81 120.23 408.45 120.23 408.45 63.74 399.1 63.74"/><polygon class="b" points="435.38 270.83 435.38 424.28 454.1 424.28 454.1 309.51 444.74 309.51 444.74 270.83 435.38 270.83"/><rect class="b" x="108.84" y="257.13" width="18.72" height="167.15"/><polygon class="b" points="72.56 424.28 91.28 424.28 91.28 257.13 81.92 257.13 81.92 356.24 72.56 356.24 72.56 424.28"/><rect class="b" y="356.24" width="18.72" height="68.04"/><polygon class="b" points="145.13 283.72 145.13 424.28 163.84 424.28 163.84 329.65 154.49 329.65 154.49 283.72 145.13 283.72"/><polygon class="b" points="217.69 424.28 236.41 424.28 236.41 285.33 227.05 285.33 227.05 329.65 217.69 329.65 217.69 424.28"/><rect class="b" x="362.81" width="18.72" height="424.28"/><rect class="b" x="181.41" y="329.65" width="18.72" height="94.63"/><rect class="b" x="36.28" y="356.24" width="18.72" height="68.04"/><rect class="b" x="653.06" y="332.87" width="18.72" height="91.41"/><rect class="b" x="907.03" y="331.28" width="18.72" height="93"/><rect class="b" x="943.32" y="369" width="18.72" height="55.28"/><polygon class="b" points="853.19 331.28 845.84 331.28 834.47 331.71 834.47 424.28 853.19 424.28 853.19 331.28"/><rect class="b" x="979.6" y="369" width="18.72" height="55.28"/><rect class="b" x="798.19" y="331.73" width="18.72" height="92.55"/><rect class="b" x="870.75" y="331.28" width="18.72" height="93"/><polygon class="b" points="526.66 338.51 517.3 338.51 517.3 309.74 507.94 309.64 507.94 424.28 526.66 424.28 526.66 338.51"/><polygon class="b" points="616.78 95.17 616.78 424.28 635.5 424.28 635.5 111.01 626.14 111.01 626.14 95.17 616.78 95.17"/><rect class="b" x="725.63" y="332.87" width="18.72" height="91.41"/><polygon class="b" points="562.94 95.17 553.58 95.17 553.58 111.01 544.22 111.01 544.22 424.28 562.94 424.28 562.94 95.17"/><rect class="b" x="761.91" y="331.73" width="18.72" height="92.55"/><rect class="b" x="689.35" y="332.87" width="18.72" height="91.41"/><rect class="b" x="580.5" y="95.17" width="18.72" height="329.11"/></svg>