<?xml version="1.0" encoding="utf-8"?>
<!-- Generator: Adobe Illustrator 21.0.0, SVG Export Plug-In . SVG Version: 6.00 Build 0)  -->
<svg version="1.1" id="Layer_1" xmlns="http://www.w3.org/2000/svg" xmlns:xlink="http://www.w3.org/1999/xlink" x="0px" y="0px"
	 viewBox="0 0 252 173.2" style="enable-background:new 0 0 252 173.2;" xml:space="preserve">
<style type="text/css">
	.st0{fill:#FFFFFF;}
	.st1{fill:#21385F;}
</style>
<title>Asset 2</title>
<path class="st0" d="M8.6,75.7v-44H0v-13h48.6c9.3,0,13.8,4.4,13.8,13.8v42.4c0,9.3-4.5,13.8-13.8,13.8H0v-13L8.6,75.7z M43.9,74.3
	c1.4,0,1.9-0.5,1.9-1.9V35.1c0-1.5-0.5-1.9-1.9-1.9H25.2v41.2H43.9z"/>
<path class="st0" d="M85.2,88.7c-9.3,0-13.8-4.5-13.8-13.8V32.6c0-9.4,4.6-13.8,13.9-13.8h26c9.4,0,13.7,4.4,13.7,13.8v12.2h-16.6
	v-9.7c0-1.5-0.4-1.9-1.9-1.9H89.9c-1.4,0-1.9,0.4-1.9,1.9v37.4c0,1.4,0.5,1.9,1.9,1.9h16.6c1.5,0,1.9-0.5,1.9-1.9v-9.8H125v12.3
	c0,9.3-4.4,13.8-13.8,13.8H85.2z"/>
<path class="st0" d="M0,125.6h6.6c5.3,0,9,3.7,9,8.4l0,0c0,4.8-3.7,8.5-9,8.5H0V125.6z M6.6,139.2c2.7,0.2,4.9-1.9,5.1-4.5
	c0-0.2,0-0.3,0-0.5l0,0c0.2-2.7-1.9-5-4.6-5.2c-0.2,0-0.4,0-0.5,0H3.7v10.2H6.6z"/>
<path class="st0" d="M18.7,134.1L18.7,134.1c0-4.8,3.9-8.8,8.8-8.8c0.1,0,0.2,0,0.2,0c4.8-0.2,8.8,3.6,9,8.4c0,0.1,0,0.2,0,0.3l0,0
	c0,4.8-3.9,8.8-8.8,8.8c-0.1,0-0.2,0-0.2,0c-4.8,0.2-8.8-3.6-9-8.4C18.7,134.4,18.7,134.3,18.7,134.1z M32.8,134.1L32.8,134.1
	c0.1-2.8-2.1-5.2-5-5.3c-0.1,0-0.1,0-0.2,0c-2.8,0-5.1,2.2-5.1,5c0,0.1,0,0.2,0,0.2l0,0c-0.1,2.8,2.1,5.2,5,5.3c0.1,0,0.1,0,0.2,0
	c2.8,0,5.1-2.2,5.1-5C32.8,134.3,32.8,134.2,32.8,134.1L32.8,134.1z"/>
<path class="st0" d="M40.4,135.3v-9.7h3.7v9.6c0,2.8,1.4,4.2,3.7,4.2s3.7-1.4,3.7-4.1v-9.7h3.7v9.6c0,5.1-2.9,7.7-7.4,7.7
	S40.4,140.3,40.4,135.3z"/>
<path class="st0" d="M59,134.1L59,134.1c0-4.8,3.8-8.7,8.6-8.8c0.1,0,0.2,0,0.3,0c2.4-0.1,4.8,0.7,6.7,2.3l-2.3,2.8
	c-1.2-1.1-2.8-1.8-4.4-1.7c-2.8,0.1-5,2.5-4.9,5.3l0,0c-0.2,2.8,2,5.2,4.8,5.4c0.1,0,0.2,0,0.3,0c1.2,0,2.5-0.3,3.5-1V136h-3.8v-3.2
	h7.4v7.4c-2,1.7-4.6,2.7-7.2,2.7C62.6,142.9,59,139.2,59,134.1z"/>
<path class="st0" d="M80,125.6h3.7v13.6h8.5v3.4H80V125.6z"/>
<path class="st0" d="M102.7,125.5h3.4l7.3,17.1h-3.9l-1.6-3.8h-7.2l-1.6,3.8h-3.8L102.7,125.5z M106.6,135.5l-2.2-5.5l-2.2,5.5
	H106.6z"/>
<path class="st0" d="M115.6,140.1l2.2-2.6c1.4,1.3,3.2,2,5.1,2.1c1.5,0,2.4-0.6,2.4-1.6l0,0c0-0.9-0.6-1.4-3.4-2.2
	c-3.4-0.9-5.6-1.8-5.6-5.2l0,0c0-3.1,2.5-5.1,5.9-5.1c2.3,0,4.5,0.7,6.3,2.2l-1.9,2.8c-1.3-1-2.8-1.6-4.4-1.7
	c-1.4,0-2.2,0.6-2.2,1.5l0,0c0,1.1,0.7,1.5,3.7,2.2c3.4,0.9,5.4,2.1,5.4,5.1l0,0c0,3.4-2.6,5.3-6.2,5.3
	C120.2,142.8,117.6,141.9,115.6,140.1z"/>
<path class="st0" d="M140.9,134.1L140.9,134.1c-0.1-4.8,3.7-8.7,8.5-8.8c0.1,0,0.2,0,0.4,0c2.5-0.1,4.9,0.8,6.7,2.6l-2.4,2.7
	c-1.1-1.2-2.7-1.9-4.3-1.9c-2.8,0-5,2.3-4.9,5.1c0,0.1,0,0.1,0,0.2l0,0c-0.2,2.8,1.9,5.1,4.7,5.3c0.1,0,0.2,0,0.3,0
	c1.7,0,3.3-0.7,4.5-2l2.4,2.4c-1.7,2-4.3,3.1-7,3c-4.7,0-8.6-3.8-8.6-8.5C140.9,134.2,140.9,134.2,140.9,134.1z"/>
<path class="st0" d="M159.1,134.1L159.1,134.1c0-5,4-9,9-9s9,4,9,9l0,0c0,5-4,9-9,9S159.1,139.1,159.1,134.1z M173.2,134.1
	L173.2,134.1c0.1-2.8-2.1-5.2-5-5.3c-0.1,0-0.1,0-0.2,0c-2.8,0-5.1,2.2-5.1,5c0,0.1,0,0.2,0,0.2l0,0c-0.1,2.8,2.1,5.2,5,5.3
	c0.1,0,0.1,0,0.2,0c2.8,0,5.1-2.2,5.1-5C173.2,134.3,173.2,134.2,173.2,134.1z"/>
<path class="st0" d="M180.8,135.3v-9.7h3.7v9.6c0,2.8,1.4,4.2,3.7,4.2s3.7-1.4,3.7-4.1v-9.7h3.7v9.6c0,5.1-2.9,7.7-7.4,7.7
	S180.8,140.3,180.8,135.3z"/>
<path class="st0" d="M200.1,125.6h3.4l7.9,10.4v-10.4h3.7v17H212l-8.2-10.8v10.8h-3.7L200.1,125.6z"/>
<path class="st0" d="M223.8,129.1h-5.2v-3.4h14.1v3.4h-5.2v13.5h-3.7V129.1z"/>
<path class="st0" d="M241.8,135.9l-6.5-10.3h4.4l4,6.8l4.1-6.8h4.3l-6.5,10.2v6.8h-3.7V135.9z"/>
<path class="st0" d="M0,155.9h6.6c5.3,0,9,3.7,9,8.4l0,0c0,4.8-3.7,8.5-9,8.5H0V155.9z M6.6,169.5c2.7,0.2,4.9-1.9,5.1-4.5
	c0-0.2,0-0.3,0-0.5l0,0c0.1-2.7-1.9-5-4.6-5.1c-0.2,0-0.3,0-0.5,0H3.7v10.2H6.6z"/>
<path class="st0" d="M19.6,155.9h12.8v3.3h-9.1v3.4h8v3.3h-8v3.6h9.2v3.3H19.6V155.9z"/>
<path class="st0" d="M37.5,155.9h4l4.5,7.2l4.5-7.2h4v17h-3.7v-11.1L46,169h-0.1l-4.7-7.2v11h-3.6V155.9z"/>
<path class="st0" d="M58.2,164.4L58.2,164.4c0-5,4-9,9-9s9,4,9,9l0,0c0,5-4,9-9,9S58.2,169.4,58.2,164.4z M72.3,164.4L72.3,164.4
	c0.1-2.8-2.1-5.2-5-5.3c-0.1,0-0.1,0-0.2,0c-2.8,0-5.1,2.2-5.1,5c0,0.1,0,0.2,0,0.2l0,0c-0.1,2.8,2.1,5.2,5,5.3c0.1,0,0.1,0,0.2,0
	c2.8,0,5.1-2.2,5.1-5C72.3,164.6,72.3,164.5,72.3,164.4L72.3,164.4z"/>
<path class="st0" d="M79.3,164.4L79.3,164.4c-0.1-4.8,3.7-8.7,8.5-8.8c0.1,0,0.2,0,0.4,0c2.5-0.1,4.9,0.8,6.7,2.6l-2.4,2.7
	c-1.1-1.2-2.7-1.9-4.3-1.9c-2.8,0-5,2.3-4.9,5.1c0,0.1,0,0.1,0,0.2l0,0c-0.2,2.8,1.9,5.1,4.7,5.3c0.1,0,0.2,0,0.3,0
	c1.7,0,3.3-0.7,4.5-2l2.4,2.4c-1.7,2-4.3,3.1-7,3c-4.7,0.1-8.6-3.7-8.7-8.5C79.3,164.6,79.3,164.5,79.3,164.4z"/>
<path class="st0" d="M99.2,155.9h7.8c1.8-0.1,3.6,0.5,4.9,1.7c1,1,1.5,2.4,1.4,3.9l0,0c0.1,2.4-1.4,4.5-3.6,5.3l4.1,6.1h-4.4
	l-3.6-5.4H103v5.4h-3.8V155.9z M106.7,164.2c1.8,0,2.9-1,2.9-2.4l0,0c0-1.6-1.1-2.4-2.9-2.4H103v4.9L106.7,164.2z"/>
<path class="st0" d="M123.8,155.8h3.4l7.3,17.1h-3.9l-1.6-3.8h-7.2l-1.6,3.8h-3.8L123.8,155.8z M127.7,165.8l-2.2-5.5l-2.2,5.5
	H127.7z"/>
<path class="st0" d="M139.5,159.4h-5.2v-3.4h14.1v3.4h-5.2v13.5h-3.7V159.4z"/>
<path class="st0" d="M150.9,170.4l2.2-2.6c1.4,1.3,3.2,2,5.1,2.1c1.5,0,2.4-0.6,2.4-1.6l0,0c0-0.9-0.6-1.4-3.4-2.2
	c-3.4-0.9-5.6-1.8-5.6-5.2l0,0c0-3.1,2.5-5.1,5.9-5.1c2.3,0,4.5,0.7,6.3,2.2l-1.9,2.8c-1.3-1-2.8-1.6-4.4-1.7
	c-1.4,0-2.2,0.6-2.2,1.5l0,0c0,1.1,0.7,1.5,3.7,2.2c3.4,0.9,5.4,2.1,5.4,5.1l0,0c0,3.4-2.6,5.3-6.2,5.3
	C155.4,173.1,152.9,172.2,150.9,170.4z"/>
<circle class="st0" cx="187.7" cy="53.8" r="53.8"/>
<path class="st1" d="M170.9,69.7v-32h-6.2v-9.4h35.3c6.8,0,10,3.2,10,10v30.8c0,6.8-3.3,10-10,10h-35.3v-9.4H170.9z M196.5,68.7
	c1,0,1.4-0.4,1.4-1.4V40.2c0-1.1-0.4-1.4-1.4-1.4h-13.6v29.9L196.5,68.7z"/>
<polygon class="st1" points="151.7,47.6 153.2,52.3 158.1,52.3 154.4,55.2 155.7,59.9 151.7,57.2 147.7,59.9 149,55 145.2,52.3 
	150.1,52.3 "/>
<polygon class="st1" points="223.8,47.6 225.3,52.3 230.2,52.3 226.5,55.2 227.8,59.9 223.8,57.2 219.8,59.9 221.1,55 217.3,52.3 
	222.3,52.3 "/>
</svg>
