<svg xmlns="http://www.w3.org/2000/svg" width="254" height="254" viewBox="0 0 254 254"><defs><style>.a{fill:#dd3b2f;}.b{fill:#21385f;}.c,.d{fill:#fff;}.d{stroke:#fff;stroke-linecap:round;stroke-linejoin:round;stroke-width:0.21px;}</style></defs><title>Asset 1</title><circle class="a" cx="127" cy="127" r="71.72"/><polygon class="b" points="36.77 142.02 38.88 148.49 45.68 148.49 40.51 152.49 42.28 158.96 36.77 155.19 31.27 158.96 33.04 152.25 27.88 148.49 34.67 148.49 36.77 142.02"/><polygon class="b" points="217.22 142.02 219.32 148.49 226.12 148.49 220.96 152.49 222.72 158.96 217.22 155.19 211.72 158.96 213.49 152.25 208.32 148.49 215.12 148.49 217.22 142.02"/><path class="c" d="M89.89,107V90.12h-3.3v-5h18.67c3.57,0,5.3,1.69,5.3,5.3v16.29c0,3.57-1.73,5.3-5.3,5.3H86.59v-5Zm13.56-.54c.54,0,.73-.19.73-.73V91.39c0-.58-.19-.73-.73-.73H96.27v15.83Z"/><path class="c" d="M122,140.45c-3.57,0-5.3-1.73-5.3-5.3V118.85c0-3.61,1.77-5.3,5.34-5.3h10c3.61,0,5.26,1.69,5.26,5.3v4.69h-6.38v-3.73c0-.58-.15-.73-.73-.73h-6.38c-.54,0-.73.15-.73.73v14.37c0,.54.19.73.73.73h6.38c.58,0,.73-.19.73-.73v-3.77h6.38v4.73c0,3.57-1.69,5.3-5.3,5.3Z"/><circle class="d" cx="157.73" cy="157.73" r="17.93"/><path class="b" d="M152,163.29V152.16h-2.18v-3.29h12.29c2.35,0,3.49,1.11,3.49,3.49v10.73c0,2.35-1.14,3.49-3.49,3.49H149.84v-3.29Zm8.93-.35c.35,0,.48-.13.48-.48V153c0-.38-.13-.48-.48-.48h-4.73v10.42Z"/><path class="b" d="M25.91,118.74l1-6.45c.81-5.2,4.93-8.23,9.58-7.51h0c4.65.72,7.71,4.87,6.9,10.07l-1,6.45Zm14.25-4.39A4.77,4.77,0,0,0,36,108.6h0a4.81,4.81,0,0,0-5.76,4.21l-.44,2.81,10,1.55Z"/><path class="b" d="M38,99.39l0,0A8.9,8.9,0,0,1,44.82,83l0,0A8.9,8.9,0,0,1,38,99.39Zm5.39-12.85,0,0a5.08,5.08,0,0,0-6.81,2.64,5,5,0,0,0,2.86,6.65l0,0a5.08,5.08,0,0,0,6.81-2.64A5,5,0,0,0,43.42,86.54Z"/><path class="b" d="M49.06,78.37l-7.69-5.69,2.19-3,7.61,5.63c2.19,1.62,4.14,1.36,5.47-.44s1.05-3.71-1.08-5.29l-7.7-5.7,2.19-3,7.59,5.62c4.07,3,4.38,6.78,1.71,10.39S53,81.3,49.06,78.37Z"/><path class="b" d="M60.94,61.42l0,0A8.59,8.59,0,0,1,62,49.11a9.19,9.19,0,0,1,6.5-2.5l0,3.63a6.16,6.16,0,0,0-4.44,1.53,5,5,0,0,0-.3,7.08l0,0a5,5,0,0,0,7.3.77,5.87,5.87,0,0,0,2-3L71.6,54.84l-2.83,2.4L66.71,54.8l5.55-4.7L77,55.65a10.86,10.86,0,0,1-3.74,6.65A8.38,8.38,0,0,1,60.94,61.42Z"/><path class="b" d="M75.44,39.79l3.27-1.7L84.89,50l7.4-3.86,1.55,3L83.18,54.64Z"/><path class="b" d="M99.74,29.46l3.29-.86,11.19,14.5-3.73,1-2.43-3.25-6.85,1.78-.53,4-3.63.95ZM106,38l-3.52-4.69-.78,5.81Z"/><path class="b" d="M117.29,40.43l2.08-2.68a7.68,7.68,0,0,0,5.06,1.86c1.51-.05,2.39-.68,2.36-1.66v0c0-.93-.62-1.39-3.44-2-3.4-.74-5.61-1.6-5.72-4.92v0c-.11-3,2.26-5.13,5.68-5.25a9.68,9.68,0,0,1,6.29,1.91l-1.82,2.84a7.86,7.86,0,0,0-4.41-1.5c-1.41,0-2.13.72-2.1,1.53v0c0,1.1.77,1.43,3.68,2.07,3.42.77,5.38,1.92,5.48,4.83v0c.12,3.32-2.35,5.27-6,5.4A10.65,10.65,0,0,1,117.29,40.43Z"/><path class="b" d="M149,36.58l0,0a8.5,8.5,0,0,1,11-5.46,8.63,8.63,0,0,1,5.45,4.53l-3.07,1.83a6.17,6.17,0,0,0-3.47-3.14,5,5,0,0,0-6.25,3.42l0,0a5,5,0,0,0,2.95,6.52,6,6,0,0,0,4.79-.47l1.48,3a8.55,8.55,0,0,1-7.45.67A8.44,8.44,0,0,1,149,36.58Z"/><path class="b" d="M168.31,43.51l0,0a8.9,8.9,0,0,1,15.14,9.33l0,0a8.9,8.9,0,0,1-15.14-9.33Zm11.85,7.35,0,0a5.09,5.09,0,0,0-1.53-7.14,5,5,0,0,0-7,1.78l0,0a5.08,5.08,0,0,0,1.53,7.14A5,5,0,0,0,180.15,50.86Z"/><path class="b" d="M187.33,57.72l6.83-6.7,2.58,2.63L190,60.28c-1.95,1.91-2,3.87-.42,5.47s3.5,1.62,5.4-.24l6.84-6.72,2.58,2.63L197.63,68c-3.62,3.55-7.39,3.26-10.53.05S183.81,61.17,187.33,57.72Z"/><path class="b" d="M210.25,69.06,212,72l-4.87,12L216,78.72l1.85,3.13-14.4,8.53-1.6-2.69,5-12.39-9.15,5.42-1.85-3.13Z"/><path class="b" d="M219.22,94.51l-1.6-4.83,3.22-1.07,4.35,13.17L222,102.84,220.37,98l-12.67,4.18-1.15-3.49Z"/><path class="b" d="M217.24,115.12l9.36-7.52.48,4.28-6.23,4.72,7.13,3.29.47,4.16-10.72-5.27-6.63.74-.41-3.66Z"/><path class="b" d="M57.24,175.36l4.2,5c3.38,4.06,2.93,9.19-.71,12.22l0,0c-3.64,3-8.8,2.57-12.18-1.49l-4.2-5ZM51.07,189a4.79,4.79,0,0,0,7.11.68l0,0a4.83,4.83,0,0,0,.65-7.14L57,180.34l-7.79,6.49Z"/><path class="b" d="M71,190.63l10.1,7.69-2,2.62-7.17-5.46-2.07,2.72,6.31,4.8-2,2.62-6.31-4.8-2.14,2.81L73,209.16l-2,2.62L60.81,204Z"/><path class="b" d="M85.72,201.28l3.66,1.59,1.23,8.28,6.88-4.77,3.66,1.59L94.47,223.4l-3.37-1.46,4.36-10.08-7.2,4.71-.09,0-1.47-8.39-4.34,10L79,216.72Z"/><path class="b" d="M103.14,217.37v0a8.94,8.94,0,0,1,17.66,2.83v0a8.94,8.94,0,0,1-17.65-2.83ZM117,219.62v0a5.11,5.11,0,0,0-4.18-6A5,5,0,0,0,107,217.9v0a5.11,5.11,0,0,0,4.18,6A5,5,0,0,0,117,219.62Z"/><path class="b" d="M125.48,220.2v0a8.55,8.55,0,0,1,8.31-9.14,8.68,8.68,0,0,1,6.76,2.25l-2.21,2.83a6.21,6.21,0,0,0-4.39-1.67,5,5,0,0,0-4.6,5.48v0a5,5,0,0,0,5.14,5,6.07,6.07,0,0,0,4.31-2.2l2.48,2.25a8.6,8.6,0,0,1-6.73,3.36A8.49,8.49,0,0,1,125.48,220.2Z"/><path class="b" d="M144.73,210l7.37-2.19a6.7,6.7,0,0,1,5.18.24,5.28,5.28,0,0,1,2.48,3.28v0a5.22,5.22,0,0,1-2,6l5.65,4.59-4.15,1.23-5-4.14-2.79.83,1.53,5.16-3.55,1.05Zm9.46,5.71c1.73-.51,2.45-1.73,2-3.09v0c-.45-1.52-1.74-2-3.47-1.48l-3.52,1,1.37,4.63Z"/><path class="b" d="M166.42,201.72l3-1.66,14.52,11.32-3.38,1.88-3.17-2.55-6.22,3.45.48,4-3.3,1.83Zm8.2,6.77L170,204.8l.69,5.85Z"/><path class="b" d="M182,195.66l-3.92,3.29-2.19-2.61,10.68-9,2.19,2.61-3.92,3.29,8.62,10.27-2.84,2.38Z"/><path class="b" d="M200.26,193.82l-.69-3.34a7.72,7.72,0,0,0,4.72-2.67c.94-1.19,1-2.28.27-2.89l0,0c-.73-.58-1.47-.43-3.78,1.33-2.78,2.12-4.88,3.25-7.49,1.17l0,0c-2.39-1.9-2.45-5.07-.31-7.76a9.73,9.73,0,0,1,5.56-3.57l1,3.24a7.9,7.9,0,0,0-4,2.4c-.88,1.11-.84,2.1-.2,2.61l0,0c.87.69,1.6.35,4-1.47,2.82-2.12,5-2.87,7.27-1l0,0c2.62,2.08,2.5,5.24.25,8.08A10.7,10.7,0,0,1,200.26,193.82Z"/><path class="b" d="M127,4.48a122.52,122.52,0,0,1,86.63,209.15A122.52,122.52,0,1,1,40.37,40.37,121.72,121.72,0,0,1,127,4.48M127,0A127,127,0,1,0,254,127,127,127,0,0,0,127,0Z"/><path class="a" d="M127,13.45a113.55,113.55,0,0,1,80.29,193.85A113.55,113.55,0,1,1,46.71,46.71,112.81,112.81,0,0,1,127,13.45M127,9A118,118,0,1,0,245,127,118,118,0,0,0,127,9Z"/></svg>