<?xml version="1.0" encoding="utf-8"?>
<!-- Generator: Adobe Illustrator 21.0.0, SVG Export Plug-In . SVG Version: 6.00 Build 0)  -->
<svg version="1.1" id="Layer_1" xmlns="http://www.w3.org/2000/svg" xmlns:xlink="http://www.w3.org/1999/xlink" x="0px" y="0px"
	 viewBox="0 0 32 32" style="enable-background:new 0 0 32 32;" xml:space="preserve">
<style type="text/css">
	.st0{fill:#FFFFFF;}
</style>
<title>Asset 4</title>
<g>
	<path class="st0" d="M23.5,12.2c0,0.2,0,0.3,0,0.5c0,4.9-3.8,10.6-10.6,10.6c-2.1,0-4.2-0.5-5.8-1.5c0.3,0,0.6,0.1,0.9,0.1
		c1.7,0,3.4-0.8,4.6-1.7c-1.6,0-3-1.2-3.5-2.6c0.2,0,0.5,0.1,0.7,0.1c0.4,0,0.7,0,1-0.1c-1.7-0.4-3-1.8-3-3.7l0,0
		c0.5,0.3,1.1,0.5,1.7,0.5c-1.1-0.7-1.6-1.8-1.6-3.1c0-0.7,0.2-1.3,0.5-1.8c1.8,2.2,4.6,3.7,7.7,3.9C16,13,16,12.7,16,12.4
		c0-2,1.6-3.8,3.8-3.8c1.1,0,2,0.5,2.8,1.2c0.9-0.2,1.6-0.5,2.3-0.9c-0.3,0.9-0.9,1.6-1.6,2.1c0.8-0.1,1.4-0.3,2.1-0.6
		C24.9,11.1,24.3,11.8,23.5,12.2z"/>
</g>
</svg>
