<svg xmlns="http://www.w3.org/2000/svg" width="32" height="32" viewBox="0 0 32 32"><defs><style>.a{fill:#dc3a2e;}</style></defs><title>Asset 4</title><path class="a" d="M32,16A16,16,0,1,1,16,0,16,16,0,0,1,32,16ZM7.69,15.21A22.82,22.82,0,0,1,8.8,8.85H3.46a14.37,14.37,0,0,0-1.87,6.37Zm7.53-6.37H10.46a21.14,21.14,0,0,0-1.21,6.37h6V8.84Zm0-7.26a17.24,17.24,0,0,0-4.13,5.69h4.13ZM4.49,7.27h4.9A20.06,20.06,0,0,1,12.66,2,14.36,14.36,0,0,0,4.49,7.27Zm25.93,7.95a14.37,14.37,0,0,0-1.87-6.37H23.2a22.8,22.8,0,0,1,1.11,6.37Zm-13.64,0h6a21.14,21.14,0,0,0-1.21-6.37H16.78Zm0-7.95h4.13a17.25,17.25,0,0,0-4.13-5.69ZM19.34,2a20,20,0,0,1,3.26,5.31h4.9A14.35,14.35,0,0,0,19.34,2ZM1.58,16.79a14.36,14.36,0,0,0,1.87,6.37H8.8a22.82,22.82,0,0,1-1.11-6.37H1.58Zm13.64,0h-6a21.14,21.14,0,0,0,1.21,6.37h4.76Zm0,7.95H11.09a17.23,17.23,0,0,0,4.13,5.69V24.73ZM12.66,30a20.05,20.05,0,0,1-3.26-5.31H4.49A14.36,14.36,0,0,0,12.66,30ZM24.31,16.79a22.79,22.79,0,0,1-1.11,6.37h5.35a14.36,14.36,0,0,0,1.87-6.37H24.31Zm-7.53,6.37h4.76a21.14,21.14,0,0,0,1.21-6.37h-6Zm0,7.26a17.24,17.24,0,0,0,4.13-5.69H16.78Zm10.73-5.69h-4.9A20.05,20.05,0,0,1,19.34,30,14.36,14.36,0,0,0,27.51,24.73Z"/></svg>